# xmcd CD database file
#
# Track frame offsets:
#	150
#	20899
#	40409
#	66061
#	77379
#	97358
#	121709
#	150899
#	170236
#	185961
#	200172
#
# Disc length: 2913 seconds
#
# Revision: 0
# Processed by: cddbd v1.5.2PL0 Copyright (c) Steve Scherf et al.
# Submitted via: CDex 1.79
#
DISCID=9a0b5f0b
DTITLE=Cassandra Wilson - Another Country (ProMo)
DYEAR=2012
DGENRE=Jazz
TTITLE0=Red Guitar
TTITLE1=No More Blues
TTITLE2=O Sole Mio
TTITLE3=Deep Blue
TTITLE4=Almost Twelve
TTITLE5=Passion
TTITLE6=When Will I See You Again
TTITLE7=Another Country
TTITLE8=Letting You Go
TTITLE9=Olomuroro
TTITLE10=O Sole Mio  Funk (Bonustrack)
EXTD=YEAR: 2012
EXTT0=
EXTT1=
EXTT2=
EXTT3=
EXTT4=
EXTT5=
EXTT6=
EXTT7=
EXTT8=
EXTT9=
EXTT10=
PLAYORDER=
